<?xml version="1.0" encoding="UTF-8"?>
<svg width="100px" height="51px" viewBox="0 0 100 51" version="1.1" xmlns="http://www.w3.org/2000/svg" xmlns:xlink="http://www.w3.org/1999/xlink">
    <!-- Generator: Sketch 49 (51002) - http://www.bohemiancoding.com/sketch -->
    <title>Path-2</title>
    <desc>Created with Sketch.</desc>
    <defs></defs>
    <g id="Page-1" stroke="none" stroke-width="1" fill="none" fill-rule="evenodd">
        <g id="Homepage" transform="translate(-194.000000, -82.000000)" fill="#222222" fill-rule="nonzero">
            <g id="TopNav" transform="translate(194.000000, 82.000000)">
                <path d="M12.727743,5.49867939 C11.1560697,7.92796061 9.39255636,12.3607485 8.09175697,16.9200958 C5.59866424,25.6584709 4.00985515,34.5432491 4.00985515,40.2501558 C4.00985515,43.9445552 4.72749515,46.3820448 6.01021273,47.6213861 C6.73236242,48.3191152 6.75215939,49.4701539 6.0544303,50.192303 C5.35670121,50.9144527 4.20566242,50.9342497 3.48351333,50.2365206 C1.35931212,48.1841521 0.373491515,44.835777 0.373491515,40.2501558 C0.373491515,34.149377 2.01726545,24.9572297 4.59492727,15.9224364 C5.98592667,11.0469364 7.86827576,6.31544242 9.67463758,3.5234103 C10.9333661,1.57783818 12.1997333,0.415499394 13.7530236,0.279739394 C15.7397261,0.106098788 17.0810442,1.58962909 17.9348867,4.16572424 C19.6799333,9.43063758 21.3656061,15.5995715 22.9937455,22.6751412 C23.9517842,27.6758388 25.7696824,30.3669388 28.3572012,31.1359436 C30.5561067,31.7894533 33.1486788,29.5051461 35.9819139,23.4808285 C38.0381624,19.9198909 39.6926564,17.6138927 41.1056352,16.3662424 C43.1243055,14.5837703 45.4227194,14.5983812 46.6146467,16.9141812 C46.9772121,17.6186103 47.2859394,18.4336297 47.6800903,19.6459533 C47.7705733,19.92426 48.2256224,21.3625994 48.3578764,21.7656873 C49.5295224,25.336657 50.4884879,26.6552533 51.7510976,26.5173145 C53.3206345,26.3458442 55.4073758,25.0842473 63.8461697,19.4639933 C64.3707661,19.1146109 64.833143,18.8080497 65.2753315,18.516743 C70.3849758,15.1505897 73.7041218,13.2556291 76.4894024,12.3395103 C81.2918248,10.7599248 88.0910594,7.68634 96.8550273,3.12494485 C97.7457576,2.66134545 98.8436594,3.00760303 99.3072588,3.89833333 C99.7708588,4.78906364 99.4246012,5.88696545 98.5338703,6.35056545 C89.6103867,10.9949842 82.6516479,14.1406721 77.6255745,15.79382 C75.2525267,16.5743491 72.1125848,18.3669988 67.2758218,21.5533824 C66.8392158,21.8410115 66.3817503,22.1443164 65.8618685,22.4905588 C65.5681291,22.6861903 65.2677842,22.8866297 64.8712703,23.1515491 C64.9019552,23.1310479 64.1074024,23.6620176 63.8865867,23.8094739 C63.0892685,24.3419085 62.5105115,24.7267242 61.9485206,25.0972661 C60.4978461,26.0537503 59.3370152,26.795783 58.2859388,27.43124 C55.5662624,29.0754952 53.6534588,29.967483 52.146017,30.1321697 C50.0646164,30.3595606 48.3689891,29.4441976 47.1024236,27.7026448 C46.2364891,26.5119679 45.6158897,25.0728964 44.9027358,22.8993291 C44.7628939,22.4731152 44.3058527,21.0284782 44.2219067,20.7702782 C43.9772527,20.0177752 43.7770042,19.4597552 43.5902673,19.0248873 C42.4760079,20.0072867 41.0227321,22.0290521 39.238797,25.0999794 C35.73542,32.5179642 31.8134218,35.9566842 27.3212642,34.6216248 C23.2108412,33.4000164 20.6191273,29.5723182 19.4425418,23.4582182 C17.8407861,16.5008194 16.1870552,10.4504752 14.4831824,5.30978606 C14.2885333,4.72251758 14.0917582,4.2992503 13.9181515,4.03934667 C13.4934958,4.42392909 13.1245824,4.88529879 12.727743,5.49867939 Z" id="Path-2"></path>
            </g>
        </g>
    </g>
</svg>