<svg xmlns="http://www.w3.org/2000/svg" height="512pt" version="1.1" viewBox="-93 0 512 512.00097" width="512pt">
<g id="surface1">
<path d="M 302.035156 490.96875 L 176.816406 190.597656 C 174.457031 184.9375 168.929688 181.253906 162.800781 181.253906 C 156.667969 181.253906 151.140625 184.9375 148.78125 190.597656 L 23.5625 490.96875 C 20.796875 497.601562 23.058594 505.261719 28.980469 509.332031 C 31.585938 511.121094 34.589844 512 37.574219 512 C 41.375 512 45.152344 510.578125 48.0625 507.804688 L 162.796875 398.34375 L 277.535156 507.800781 C 282.734375 512.757812 290.695312 513.398438 296.617188 509.328125 C 302.539062 505.261719 304.800781 497.601562 302.035156 490.96875 Z M 173.730469 262.132812 L 151.867188 262.132812 L 162.800781 235.910156 Z M 79.425781 435.898438 L 114.351562 352.128906 L 140.796875 377.355469 Z M 126.871094 322.09375 L 139.203125 292.507812 L 186.394531 292.507812 L 198.726562 322.089844 L 162.796875 356.363281 Z M 184.800781 377.355469 L 211.246094 352.125 L 246.171875 435.902344 Z M 184.800781 377.355469 " style=" stroke:none;fill-rule:nonzero;fill:rgb(23.137255%,28.627451%,34.509804%);fill-opacity:1;" />
<path d="M 173.730469 262.132812 L 162.796875 262.132812 L 162.796875 292.507812 L 186.390625 292.507812 L 198.722656 322.089844 L 162.796875 356.363281 L 162.796875 398.347656 L 277.535156 507.800781 C 282.730469 512.761719 290.695312 513.398438 296.617188 509.332031 C 302.539062 505.261719 304.800781 497.601562 302.035156 490.96875 L 176.816406 190.597656 C 174.457031 184.9375 168.929688 181.253906 162.800781 181.253906 L 162.800781 235.910156 Z M 246.171875 435.902344 L 184.800781 377.355469 L 211.246094 352.125 Z M 246.171875 435.902344 " style=" stroke:none;fill-rule:nonzero;fill:rgb(9.019608%,12.54902%,16.470588%);fill-opacity:1;" />
<path d="M 162.800781 211.605469 C 150.277344 211.605469 137.753906 206.839844 128.21875 197.304688 C 109.148438 178.238281 109.148438 147.210938 128.21875 128.140625 C 147.285156 109.074219 178.3125 109.074219 197.378906 128.140625 C 216.449219 147.210938 216.449219 178.238281 197.378906 197.304688 C 187.84375 206.839844 175.324219 211.605469 162.800781 211.605469 Z M 162.800781 211.605469 " style=" stroke:none;fill-rule:nonzero;fill:rgb(100%,43.921569%,27.058824%);fill-opacity:1;" />
<path d="M 197.378906 128.140625 C 187.847656 118.609375 175.324219 113.839844 162.800781 113.839844 L 162.800781 211.605469 C 175.324219 211.605469 187.847656 206.835938 197.378906 197.304688 C 216.445312 178.238281 216.445312 147.210938 197.378906 128.140625 Z M 197.378906 128.140625 " style=" stroke:none;fill-rule:nonzero;fill:rgb(96.470588%,29.803922%,10.980392%);fill-opacity:1;" />
<path d="M 226.042969 241.15625 C 222.15625 241.15625 218.273438 239.675781 215.304688 236.707031 C 209.375 230.777344 209.375 221.160156 215.304688 215.230469 C 229.328125 201.203125 237.054688 182.554688 237.054688 162.722656 C 237.054688 142.890625 229.328125 124.242188 215.304688 110.214844 C 186.351562 81.261719 139.242188 81.261719 110.289062 110.214844 C 96.265625 124.242188 88.539062 142.890625 88.539062 162.722656 C 88.539062 182.554688 96.265625 201.203125 110.289062 215.230469 C 116.222656 221.160156 116.222656 230.777344 110.289062 236.707031 C 104.359375 242.636719 94.742188 242.636719 88.8125 236.707031 C 69.050781 216.945312 58.167969 190.671875 58.167969 162.722656 C 58.167969 134.773438 69.050781 108.5 88.8125 88.738281 C 129.609375 47.941406 195.988281 47.941406 236.78125 88.738281 C 256.546875 108.5 267.429688 134.773438 267.429688 162.722656 C 267.429688 190.671875 256.542969 216.945312 236.78125 236.707031 C 233.816406 239.671875 229.929688 241.15625 226.042969 241.15625 Z M 226.042969 241.15625 " style=" stroke:none;fill-rule:nonzero;fill:rgb(0%,78.431373%,78.431373%);fill-opacity:1;" />
<path d="M 215.304688 110.214844 C 229.332031 124.242188 237.054688 142.890625 237.054688 162.722656 C 237.054688 182.554688 229.332031 201.203125 215.304688 215.230469 C 209.375 221.160156 209.375 230.777344 215.304688 236.707031 C 218.273438 239.675781 222.160156 241.15625 226.046875 241.15625 C 229.929688 241.15625 233.820312 239.671875 236.785156 236.707031 C 256.546875 216.945312 267.429688 190.671875 267.429688 162.722656 C 267.429688 134.773438 256.546875 108.5 236.785156 88.738281 C 216.386719 68.339844 189.59375 58.140625 162.800781 58.140625 L 162.800781 88.5 C 181.8125 88.5 200.828125 95.738281 215.304688 110.214844 Z M 215.304688 110.214844 " style=" stroke:none;fill-rule:nonzero;fill:rgb(0%,62.745098%,66.666667%);fill-opacity:1;" />
<path d="M 267.175781 282.285156 C 263.289062 282.285156 259.402344 280.804688 256.4375 277.839844 C 250.507812 271.90625 250.507812 262.292969 256.4375 256.359375 C 281.449219 231.347656 295.222656 198.09375 295.222656 162.722656 C 295.222656 127.351562 281.449219 94.097656 256.4375 69.085938 C 204.804688 17.453125 120.792969 17.453125 69.160156 69.085938 C 44.148438 94.097656 30.375 127.351562 30.375 162.722656 C 30.375 198.09375 44.148438 231.347656 69.160156 256.359375 C 75.09375 262.289062 75.09375 271.90625 69.160156 277.839844 C 63.230469 283.769531 53.613281 283.769531 47.683594 277.839844 C 16.933594 247.089844 0 206.207031 0 162.722656 C 0 119.238281 16.933594 78.355469 47.683594 47.605469 C 111.15625 -15.867188 214.4375 -15.867188 277.914062 47.605469 C 308.664062 78.355469 325.597656 119.238281 325.597656 162.722656 C 325.597656 206.207031 308.664062 247.089844 277.914062 277.839844 C 274.949219 280.804688 271.0625 282.285156 267.175781 282.285156 Z M 267.175781 282.285156 " style=" stroke:none;fill-rule:nonzero;fill:rgb(0%,78.431373%,78.431373%);fill-opacity:1;" />
<path d="M 162.800781 0 L 162.800781 30.363281 C 196.710938 30.363281 230.621094 43.269531 256.4375 69.085938 C 281.449219 94.097656 295.222656 127.351562 295.222656 162.722656 C 295.222656 198.09375 281.449219 231.347656 256.4375 256.359375 C 250.507812 262.289062 250.507812 271.90625 256.4375 277.839844 C 259.402344 280.804688 263.289062 282.285156 267.175781 282.285156 C 271.0625 282.285156 274.949219 280.804688 277.914062 277.839844 C 308.664062 247.089844 325.597656 206.207031 325.597656 162.722656 C 325.597656 119.238281 308.664062 78.355469 277.914062 47.605469 C 246.175781 15.867188 204.488281 0 162.800781 0 Z M 162.800781 0 " style=" stroke:none;fill-rule:nonzero;fill:rgb(0%,62.745098%,66.666667%);fill-opacity:1;" />
</g>
</svg>