<?xml version="1.0" encoding="utf-8"?>
<!-- Generator: Adobe Illustrator 22.0.1, SVG Export Plug-In . SVG Version: 6.00 Build 0)  -->
<svg version="1.0" id="Layer_1" xmlns="http://www.w3.org/2000/svg" xmlns:xlink="http://www.w3.org/1999/xlink" x="0px" y="0px"
	 viewBox="0 0 90 90" style="enable-background:new 0 0 90 90;" xml:space="preserve">
<g>
	<path d="M64,6c2.5,2.2,5.1,4.4,7.6,6.6c5.3,4.9,10.6,9.9,15.9,14.9c2.3,2.1,2.3,4,0.1,6.1c-7.1,6.7-14.3,13.5-21.4,20.2
		c-1.2,1.2-2.6,1.7-4.3,1c-1.7-0.7-2.3-2.1-2.2-3.9c0.1-3.4,0-6.9,0-10.6c-3.8,0.3-7.4,0.4-11,1c-2.7,0.4-5.3,1-7.9,2
		c-5.8,2.2-8.9,7.2-8.3,13.4c0.4,3.4,1.2,6.7,1.9,10c0.2,1.2,0.1,2.1-0.9,2.8c-1.1,0.7-2.1,0.8-3.2-0.1C19.7,60.9,15.9,47,21.7,35
		c2.9-5.9,8-9.2,14.1-11.1c6.5-2.1,13.3-2.7,20.1-2.9c1.2,0,2.4-0.1,3.7-0.2c0-3.2,0.1-6.4,0-9.6C59.4,8.7,60.2,7,62.4,6
		C62.9,6,63.5,6,64,6z"/>
	<path d="M10.7,74.6c16.3,0,32.5,0,48.9,0c0-2.1,0-4.2,0-6.4c0-1.3,0-2.6,0-3.9c0-1.4,0.8-2,2.2-2c1.7-0.1,3.4-0.2,5.1-0.5
		c1.6-0.3,2.6,0.3,2.6,2c0,4.5,0.1,9.1,0,13.6c-0.1,4.1-3.2,7-7.3,7.1c-18.1,0-36.2,0-54.2,0c-4.2,0-7.3-3-7.3-7.2
		c0-18.1,0-36.2,0-54.2c0-3.9,2.9-7,6.7-7.1c6.3-0.2,12.6-0.1,19-0.1c1.1,0,1.9,0.4,2.2,1.6c0.2,1.1-0.5,1.7-1.3,2.2
		c-2.4,1.7-4.8,3.5-7.2,5.2c-0.6,0.4-1.4,0.8-2.1,0.8c-2.3,0.1-4.7,0-7.2,0C10.7,42.1,10.7,58.3,10.7,74.6z"/>
</g>
</svg>
