<?xml version="1.0" encoding="utf-8"?>
<!-- Generator: Adobe Illustrator 22.0.1, SVG Export Plug-In . SVG Version: 6.00 Build 0)  -->
<svg version="1.0" id="Layer_1" xmlns="http://www.w3.org/2000/svg" xmlns:xlink="http://www.w3.org/1999/xlink" x="0px" y="0px"
	 viewBox="0 0 90 90" style="enable-background:new 0 0 90 90;" xml:space="preserve">
<style type="text/css">
	.st0{display:none;}
	.st1{display:inline;}
</style>
<g class="st0">
	<path class="st1" d="M6.3,16.5c15.9,0,31.7,0,47.6,0c4.5,1.5,6.1,4.4,6.1,9.3c-0.1,13.6,0,27.1,0,40.7c0,1.2-0.1,2.3-0.3,3.5
		c-0.4,3.1-3.7,6-6.8,6c-15.2,0-30.3,0.1-45.5,0c-4,0-7.1-3.1-7.1-7.1c-0.1-15.1,0-30.1,0-45.2c0-1.8,0.6-3.5,1.9-4.6
		C3.4,18,4.9,17.3,6.3,16.5z"/>
	<path class="st1" d="M89.9,46.3c0,6.4,0,12.9,0,19.3c0,1.6-0.5,3-1.7,4.1c-1.9,1.7-4.3,1.7-6.7,0.1c-4.5-3.1-9-6.1-13.5-9.2
		c-0.8-0.5-1.6-1-2.3-1.6c-0.3-0.3-0.6-0.9-0.6-1.3c0-7.6,0-15.2,0-22.9c0-0.5,0.3-1.1,0.7-1.4c4.9-3.4,9.9-6.8,14.9-10.1
		c1.1-0.7,2.4-1.6,3.6-1.8c3.1-0.4,5.6,1.7,5.6,5.2C89.8,33.3,89.9,39.8,89.9,46.3z"/>
</g>
<g>
	<path d="M5.7,82.9c0-3.9,0-7.9,0-11.8C5.8,70.8,6,70.5,6,70.3c1.6-9.7,8.5-17.2,18.1-19.3c3.2-0.7,6.5-1.2,9.8,0.1
		c7.5,2.9,15,2.8,22.4-0.1c0.6-0.2,1.2-0.5,1.8-0.6c11.4-1.1,22,6,25.2,17c0.3,1.1,0.6,2.2,0.9,3.4c0,4,0,8.1,0,12.1
		c-0.2,0.4-0.4,0.8-0.6,1.3c-1.3,3.3-4.2,5.3-7.7,5.3c-20.7,0-41.4,0-62.1,0c-3.5,0-6.4-2.1-7.7-5.3C6.1,83.7,5.9,83.3,5.7,82.9z"/>
	<path d="M47.1,0c1,0.2,2,0.5,3.1,0.7C61,3.1,68.6,13.5,67.4,24.5c-1.2,11.7-10.5,20.3-21.9,20.3c-9.6,0-16.8-4.2-20.8-12.9
		c-3.9-8.7-2.6-17,3.5-24.3c3.5-4.1,8.1-6.4,13.4-7.2C42,0.3,42.4,0.1,42.9,0C44.3,0,45.7,0,47.1,0z"/>
</g>
</svg>
