<?xml version="1.0" encoding="utf-8"?>
<!-- Generator: Adobe Illustrator 22.0.1, SVG Export Plug-In . SVG Version: 6.00 Build 0)  -->
<svg version="1.0" id="Layer_1" xmlns="http://www.w3.org/2000/svg" xmlns:xlink="http://www.w3.org/1999/xlink" x="0px" y="0px"
	 viewBox="0 0 90 90" style="enable-background:new 0 0 90 90;" xml:space="preserve">
<g>
	<path d="M28.4,13.2c0.5,0.1,1,0.2,1.5,0.3c7.5,1.3,12.9,7.5,13.1,15c0.2,7.6-4.8,14-12.3,15.7c-8.7,2-17.5-3.9-18.9-12.6
		c-1.4-9,4.8-17.3,13.7-18.2c0.3,0,0.5-0.1,0.8-0.2C26.9,13.2,27.6,13.2,28.4,13.2z"/>
	<path d="M90,65.8c-0.4,0.9-0.7,1.8-1.2,2.6c-1.3,2-3.1,3-5.5,3c-8.1,0-16.2,0-24.4,0c-0.2,0-0.3,0-0.5-0.1c0-1.1-0.1-2.2,0-3.3
		c0.6-6.4-1.2-12-5.6-16.9c3.1-1.5,6.1-2.7,9.5-1.8c3.5,1,7,1,10.5-0.1c2.1-0.6,4.2-0.2,6.2,0.5c6,2.1,9.5,6.3,10.7,12.5
		c0,0.2,0.1,0.4,0.2,0.6C90,63.9,90,64.9,90,65.8z"/>
	<path d="M27.1,75.9c-6.5,0-13.1,0-19.6,0c-4.4,0-7.2-2.8-7.1-7.1c0-2.3-0.1-4.7,0.4-7c1.5-7.7,8.5-13,16.3-12.7
		c0.5,0,1,0.2,1.5,0.4c5.9,2.5,11.7,2.4,17.5,0c1.9-0.8,3.9-0.4,5.8,0.1C49,51.2,54.1,57.7,54.1,65c0,1.3,0,2.7,0,4
		c0,4-2.8,6.8-6.8,6.8C40.6,75.9,33.8,75.9,27.1,75.9z"/>
	<path d="M81,31.2c0,7.5-5.9,13.4-13.4,13.4c-7.6,0-13.5-5.9-13.5-13.5c0-7.5,5.9-13.4,13.5-13.4C75.1,17.8,81,23.7,81,31.2z"/>
</g>
</svg>
