<?xml version="1.0" encoding="utf-8"?>
<!-- Generator: Adobe Illustrator 22.0.1, SVG Export Plug-In . SVG Version: 6.00 Build 0)  -->
<svg version="1.0" id="Layer_1" xmlns="http://www.w3.org/2000/svg" xmlns:xlink="http://www.w3.org/1999/xlink" x="0px" y="0px"
	 viewBox="0 0 90 90" style="enable-background:new 0 0 90 90;" xml:space="preserve">
<g>
	<path d="M0.4,23.8c0-1.8,0-3.5,0-5.3c2.3-6,4.1-7.1,10.7-7.1c23.2,0,46.4,0,69.6,0c4.1,0,7.1,2,8.4,5.5c1.5,4.3,0.5,8.3-2.8,10.7
		c-9.4,7-18.9,13.9-28.4,20.9C55,50.5,52,52.5,49,54.4c-2.6,1.7-5.4,1.6-8,0c-1.6-0.9-3.3-1.9-4.8-3c-11-8.1-21.9-16.2-32.8-24.3
		C2.2,26.2,1.3,24.9,0.4,23.8z"/>
	<path d="M0.4,70.5c0-12.3,0-24.6,0-36.9c1-0.9,1.8-0.6,2.8,0.1c6.7,4.9,13.4,9.8,20.1,14.8c4.4,3.2,8.7,6.6,13.1,9.6
		c5.3,3.6,10.8,3.9,16.3,0.4c1.2-0.8,2.5-1.5,3.7-2.4c10.2-7.5,20.3-15,30.5-22.4c0.5-0.4,1.2-0.5,1.8-0.8c0.2,0.7,0.7,1.4,0.7,2
		c0,11.3,0,22.7,0,34c0,5.2-3.4,8.7-8.6,8.7c-23.9,0-47.7,0-71.6,0c-3.3,0-6-1.3-7.7-4.2C1,72.7,0.8,71.6,0.4,70.5z"/>
</g>
</svg>
